<svg width="168" height="38" viewBox="0 0 168 38" fill="none" xmlns="http://www.w3.org/2000/svg">
<path d="M1.34398 28H3.60398V20.1H4.46398L7.74398 28H10.004L6.40398 19.5L9.60398 11.8H7.34398L4.44398 19H3.60398V11.8H1.34398V28ZM10.6202 28H12.7402L13.5202 23.92H16.8202L17.5602 28H19.7002L16.2402 11.8H14.0602L10.6202 28ZM13.8202 22.3L15.1602 15L16.5202 22.3H13.8202ZM22.5966 28H24.8566V13.48H27.5166V11.8H19.8566V13.48H22.5966V28ZM28.1984 28H30.3184L31.0984 23.92H34.3984L35.1384 28H37.2784L33.8184 11.8H31.6384L28.1984 28ZM31.3984 22.3L32.7384 15L34.0984 22.3H31.3984ZM37.7021 28C41.4221 28.28 42.1221 25.62 42.4421 20.42L42.8221 13.48H45.7421V28H48.0021V11.8H40.8821L40.3421 20.42C39.9621 26.04 39.2021 26.36 37.7021 26.32V28ZM54.6832 28.18C57.9432 28.18 59.1032 26.12 59.1032 22.94V16.78C59.1032 13.6 57.9432 11.66 54.6832 11.66C51.4032 11.66 50.2432 13.58 50.2432 16.78V22.92C50.2432 26.14 51.3832 28.18 54.6832 28.18ZM54.6832 26.4C52.8632 26.4 52.5232 25.22 52.5232 23.42V16.32C52.5232 14.52 52.8632 13.42 54.6832 13.42C56.4832 13.42 56.8232 14.52 56.8232 16.32V23.42C56.8232 25.22 56.4832 26.4 54.6832 26.4ZM61.3245 28H63.5845V13.48H67.4845V11.8H61.3245V28ZM77.4296 28.18C79.6896 28.18 81.3096 26.72 81.3096 24.32C81.3096 22.3 80.2096 20.86 78.9896 19.78L76.2496 17.38C75.4896 16.72 75.1896 16.16 75.1896 15.18C75.1896 14 75.8496 13.4 76.9696 13.4C78.6496 13.4 79.0096 14.76 79.1296 16.36L81.0496 15.84C80.7896 13 79.5496 11.66 76.9696 11.66C74.6296 11.66 73.1696 13.02 73.1696 15.4C73.1696 17.02 73.6496 18.04 74.7296 18.98L77.4496 21.38C78.4696 22.28 79.2096 23.04 79.2096 24.5C79.2096 25.74 78.5896 26.4 77.4296 26.4C75.6896 26.4 75.2496 24.66 75.1296 22.92L73.1296 23.46C73.2896 26.26 74.6096 28.18 77.4296 28.18ZM83.0627 28H89.4627V26.38H85.3227V11.8H83.0627V28ZM91.132 28H93.352V11.8H91.132V28ZM95.9329 28H97.7729L97.9529 16.24L100.673 28H101.953L104.693 16.24L104.873 28H106.693L106.393 11.8H104.193L101.313 24.94L98.4529 11.8H96.2329L95.9329 28Z" fill="black"/>
<line x1="136" y1="19" x2="154" y2="19" stroke="black" stroke-width="2"/>
<path d="M160 19L153.25 24.1962V13.8038L160 19Z" fill="black"/>
</svg>
