<svg width="162" height="38" viewBox="0 0 162 38" fill="none" xmlns="http://www.w3.org/2000/svg">
<path d="M1.74633 28H4.00633V20.1H4.86633L8.14633 28H10.4063L6.80633 19.5L10.0063 11.8H7.74633L4.84633 19H4.00633V11.8H1.74633V28ZM11.0226 28H13.1426L13.9226 23.92H17.2226L17.9626 28H20.1026L16.6426 11.8H14.4626L11.0226 28ZM14.2226 22.3L15.5626 15L16.9226 22.3H14.2226ZM22.999 28H25.259V13.48H27.919V11.8H20.259V13.48H22.999V28ZM28.6007 28H30.7207L31.5007 23.92H34.8007L35.5407 28H37.6807L34.2207 11.8H32.0407L28.6007 28ZM31.8007 22.3L33.1407 15L34.5007 22.3H31.8007ZM38.1045 28C41.8245 28.28 42.5245 25.62 42.8445 20.42L43.2245 13.48H46.1445V28H48.4045V11.8H41.2845L40.7445 20.42C40.3645 26.04 39.6045 26.36 38.1045 26.32V28ZM55.0855 28.18C58.3455 28.18 59.5055 26.12 59.5055 22.94V16.78C59.5055 13.6 58.3455 11.66 55.0855 11.66C51.8055 11.66 50.6455 13.58 50.6455 16.78V22.92C50.6455 26.14 51.7855 28.18 55.0855 28.18ZM55.0855 26.4C53.2655 26.4 52.9255 25.22 52.9255 23.42V16.32C52.9255 14.52 53.2655 13.42 55.0855 13.42C56.8855 13.42 57.2255 14.52 57.2255 16.32V23.42C57.2255 25.22 56.8855 26.4 55.0855 26.4ZM61.7268 28H63.9868V13.48H67.8868V11.8H61.7268V28ZM74.012 28H76.272V20.46H78.052C80.692 20.46 82.032 18.86 82.032 16.28C82.032 13.46 80.932 11.8 78.032 11.8H74.012V28ZM76.272 18.84V13.42H77.332C79.592 13.42 79.892 14 79.892 16.3C79.892 18.3 79.252 18.84 77.312 18.84H76.272ZM83.6213 28H85.8813V20.4H87.6413L89.7613 28H91.9413L89.6413 19.88C91.0813 19.4 91.6413 18 91.6413 16.1C91.6413 13.02 90.1213 11.8 86.8813 11.8H83.6213V28ZM85.8813 18.78V13.42H86.8813C88.9413 13.42 89.4613 14.2 89.4613 16.1C89.4613 18.18 88.6413 18.78 86.7413 18.78H85.8813ZM98.1324 28.18C101.392 28.18 102.552 26.12 102.552 22.94V16.78C102.552 13.6 101.392 11.66 98.1324 11.66C94.8524 11.66 93.6924 13.58 93.6924 16.78V22.92C93.6924 26.14 94.8324 28.18 98.1324 28.18ZM98.1324 26.4C96.3124 26.4 95.9724 25.22 95.9724 23.42V16.32C95.9724 14.52 96.3124 13.42 98.1324 13.42C99.9324 13.42 100.272 14.52 100.272 16.32V23.42C100.272 25.22 99.9324 26.4 98.1324 26.4Z" fill="black"/>
<line x1="130" y1="19" x2="148" y2="19" stroke="black" stroke-width="2"/>
<path d="M154 19L147.25 24.1962V13.8038L154 19Z" fill="black"/>
</svg>
